<svg preserveAspectRatio="none" overflow="visible" style="display: block;" width="12" height="12.3333" viewBox="0 0 12 12.3333" fill="none" xmlns="http://www.w3.org/2000/svg">
<g id="Container">
<path id="Icon" d="M6.33333 1.33333C6.33333 1.7 6.20278 2.01389 5.94167 2.275C5.68056 2.53611 5.36667 2.66667 5 2.66667C4.85556 2.66667 4.72222 2.64722 4.6 2.60833C4.47778 2.56944 4.35556 2.50556 4.23333 2.41667C3.96667 2.50556 3.75278 2.66667 3.59167 2.9C3.43056 3.13333 3.35 3.38889 3.35 3.66667H12L11.3333 8.33333H8.06667V7H10.1833C10.2389 6.66667 10.2861 6.33333 10.325 6C10.3639 5.66667 10.4111 5.33333 10.4667 5H1.53333C1.58889 5.33333 1.63611 5.66667 1.675 6C1.71389 6.33333 1.76111 6.66667 1.81667 7H3.93333V8.33333H0.666667L0 3.66667H2C2 3.12222 2.15 2.62778 2.45 2.18333C2.75 1.73889 3.15556 1.41111 3.66667 1.2V1.2V1.2C3.7 0.855556 3.84444 0.569444 4.1 0.341667C4.35556 0.113889 4.65556 0 5 0C5.36667 0 5.68056 0.130556 5.94167 0.391667C6.20278 0.652778 6.33333 0.966667 6.33333 1.33333V1.33333M4.51667 11H7.48333L7.86667 7V7V7H4.13333V7V7L4.51667 11V11M3.33333 12.3333L2.83333 7.13333C2.78889 6.74444 2.9 6.40278 3.16667 6.10833C3.43333 5.81389 3.76111 5.66667 4.15 5.66667H7.85C8.23889 5.66667 8.56667 5.81389 8.83333 6.10833C9.1 6.40278 9.21111 6.74444 9.16667 7.13333L8.66667 12.3333H3.33333V12.3333" fill="#F59E0B"/>
</g>
</svg>
